<svg width="56" height="45" viewBox="0 0 56 45" fill="none" xmlns="http://www.w3.org/2000/svg">
<path fill-rule="evenodd" clip-rule="evenodd" d="M30.1667 14.4987C31.3013 10.8889 32.6023 3.53645 26.7885 3.49216C23.0891 3.46453 18.6533 6.30973 17.8542 10.0805C16.8528 14.8064 21.827 16.9715 25.6349 17.4544C26.7311 17.5938 27.8431 17.6437 28.9619 17.6307C29.422 16.6106 29.8308 15.5675 30.1667 14.4987ZM55.532 10.953C48.4289 15.7096 39.6362 19.1885 30.9274 19.7985C30.0255 21.5489 29.0386 23.1388 28.1338 24.4325C22.8769 31.9478 14.4954 38.5858 5.85976 41.7572C4.91594 42.1034 4.1599 41.1498 4.27727 40.3319C4.15909 40.7781 4.04638 41.226 3.93915 41.6754C5.12216 41.9078 6.30387 41.9473 7.54671 41.7884C8.30614 41.6911 9.08377 41.3697 9.83726 41.3322C10.286 41.3098 10.4005 41.6091 10.8862 41.5181C11.0411 41.489 11.1969 41.6619 11.0666 41.7987C10.7096 42.1729 10.727 42.6094 10.3542 42.9687C9.76722 43.5348 8.39784 43.9089 7.64308 44.0909C5.76335 44.5444 3.82573 44.4736 1.94849 44.0604C1.16449 43.8875 0.784498 43.129 0.89027 42.3811C1.1493 40.5476 1.66855 38.7507 2.2962 37.0118C2.84037 35.5054 3.36116 33.7589 4.50831 32.6079C5.40725 31.705 6.89206 32.4765 6.67046 33.7323C6.40034 35.2649 5.4724 36.6654 4.9465 38.1334C4.72094 38.7628 4.53344 39.3989 4.35856 40.0382C4.44625 39.8453 4.5938 39.6721 4.81597 39.5428C11.9943 35.3654 18.9289 31.5882 24.308 25.0422C25.6299 23.4349 26.8191 21.707 27.8309 19.8827C27.6401 19.8805 27.4475 19.8867 27.256 19.882C20.9588 19.7141 12.618 15.6679 15.8321 8.00938C18.1127 2.57323 27.9271 -2.52874 32.2795 3.47705C35.0605 7.31419 34.0576 12.7103 32.0337 17.4476C34.7185 17.1691 37.3962 16.6177 39.9453 16.0633C45.2592 14.9084 50.4339 12.9852 55.3436 10.6627C55.5384 10.5708 55.7232 10.8252 55.532 10.953Z" fill="black"/>
</svg>
